<?xml version="1.0" encoding="utf-8"?>
<!-- Generator: Adobe Illustrator 23.0.6, SVG Export Plug-In . SVG Version: 6.00 Build 0)  -->
<svg version="1.1" id="Layer_1" xmlns="http://www.w3.org/2000/svg" xmlns:xlink="http://www.w3.org/1999/xlink" x="0px" y="0px"
	 viewBox="0 0 128 128" style="enable-background:new 0 0 128 128;" xml:space="preserve">
<style type="text/css">
	.st0{fill:none;stroke:#000000;stroke-width:7;stroke-miterlimit:10;}
	.st1{fill:none;stroke:#000000;stroke-width:7;stroke-linecap:round;stroke-miterlimit:10;}
</style>
<g>
	<path d="M77.05,7c0.03,0,0.06,0.01,0.08,0.03l0.04,0.04l0.04,0.04l30.76,29.76c0.02,0.02,0.03,0.05,0.03,0.07v83.93
		c0,0.06-0.05,0.12-0.12,0.12H25.12c-0.06,0-0.12-0.05-0.12-0.12V7.12C25,7.05,25.05,7,25.12,7H77.05 M77.05,0H25.12
		C21.19,0,18,3.19,18,7.12v113.77c0,3.93,3.19,7.12,7.12,7.12h82.77c3.93,0,7.12-3.19,7.12-7.12V36.95c0-1.89-0.75-3.7-2.08-5.03
		L82.08,2.08C80.75,0.75,78.94,0,77.05,0L77.05,0z"/>
</g>
<g>
	<path class="st0" d="M113,36H83.61c-3.1,0-5.61-2.44-5.61-5.45V2"/>
</g>
<line class="st1" x1="37.5" y1="55.5" x2="94.5" y2="55.5"/>
<line class="st1" x1="37.5" y1="71.67" x2="94.5" y2="71.67"/>
<line class="st1" x1="37.5" y1="87.83" x2="94.5" y2="87.83"/>
<line class="st1" x1="37.5" y1="104" x2="73.5" y2="104"/>
</svg>
